<svg version="1.1" viewBox="0.0 0.0 960.0 540.0" fill="none" stroke="none" stroke-linecap="square" stroke-miterlimit="10" xmlns:xlink="http://www.w3.org/1999/xlink" xmlns="http://www.w3.org/2000/svg"><clipPath id="g5da3be2ad7_0_0.0"><path d="m0 0l960.0 0l0 540.0l-960.0 0l0 -540.0z" clip-rule="nonzero"/></clipPath><g clip-path="url(#g5da3be2ad7_0_0.0)"><path fill="#ffffff" d="m0 0l960.0 0l0 540.0l-960.0 0z" fill-rule="evenodd"/><path fill="#ffe700" d="m0 106.66305l0 0c0 -45.105602 36.56532 -81.67092 81.67092 -81.67092l796.6582 0c21.660461 0 42.433777 8.604591 57.75006 23.92086c15.316223 15.316269 23.920837 36.089584 23.920837 57.75006l0 326.6739c0 45.10562 -36.565308 81.67093 -81.6709 81.67093l-796.6582 0c-45.105602 0 -81.67092 -36.565308 -81.67092 -81.67093z" fill-rule="evenodd"/><path stroke="#ffe700" stroke-width="1.0" stroke-linejoin="round" stroke-linecap="butt" d="m0 106.66305l0 0c0 -45.105602 36.56532 -81.67092 81.67092 -81.67092l796.6582 0c21.660461 0 42.433777 8.604591 57.75006 23.92086c15.316223 15.316269 23.920837 36.089584 23.920837 57.75006l0 326.6739c0 45.10562 -36.565308 81.67093 -81.6709 81.67093l-796.6582 0c-45.105602 0 -81.67092 -36.565308 -81.67092 -81.67093z" fill-rule="evenodd"/><path fill="#ffe700" d="m28.236156 114.22147l903.5276 0l0 311.55905l-903.5276 0z" fill-rule="evenodd"/><path fill="#000000" d="m91.89528 366.42148l0 -217.60939l42.0625 0l0 217.60939l-42.0625 0zm59.536728 0l0 -217.60939l66.375 0l18.234375 132.75002l18.25 -132.75002l66.875 0l0 217.60939l-39.78125 0l0 -156.81252l-25.078125 156.81252l-39.015625 0l-26.59375 -156.81252l0 156.81252l-39.265625 0zm188.98273 -217.60939l60.046875 0q23.296875 0 34.953125 12.921875q11.65625 12.921875 11.90625 38.25l0.5 101.843765q0.265625 32.171875 -11.140625 48.390625q-11.40625 16.203125 -37.75 16.203125l-58.515625 0l0 -217.60939zm51.421875 179.10939q11.90625 0 11.90625 -11.65625l0 -112.23439q0 -7.34375 -1.140625 -11.015625q-1.140625 -3.671875 -4.1875 -4.9375q-3.03125 -1.265625 -9.359375 -1.265625l-4.8125 0l0 141.10939l7.59375 0zm73.46887 -179.10939l59.03125 0q23.8125 0 34.578125 11.65625q10.765625 11.65625 10.765625 38.0l0 9.625q0 31.15625 -22.296875 37.234375q13.6875 3.546875 19.25 16.468765q5.578125 12.921875 5.578125 34.203125q0 34.703125 -10.390625 52.5625q-10.375 17.859375 -37.484375 17.859375l-59.03125 0l0 -217.60939zm51.421875 81.828125q5.578125 0 7.59375 -4.171875q2.03125 -4.1875 2.03125 -11.796875l0 -21.78125q0 -10.640625 -9.359375 -10.640625l-9.125 0l0 48.390625l8.859375 0zm-4.5625 97.531265q16.984375 0 16.984375 -16.21875l0 -27.109375q0 -9.875 -2.921875 -14.9375q-2.90625 -5.0625 -10.25 -5.0625l-8.109375 0l0 63.078125l4.296875 0.25zm97.28162 38.25l-29.640625 -185.43752l44.34375 0l9.109375 93.73439l1.53125 30.140625l1.765625 -30.390625l10.140625 -93.48439l44.328125 0l-30.140625 185.43752l-51.4375 0zm92.97174 -197.84377l0 -30.90625l44.34375 0l0 30.90625l-44.34375 0zm0 197.84377l0 -185.43752l44.34375 0l0 185.43752l-44.34375 0zm112.73059 2.03125q-54.96875 0 -54.96875 -55.734375l0.25 -14.703125l44.34375 0l0.25 21.796875q0 6.578125 2.53125 10.0q2.53125 3.421875 8.359375 3.421875q8.859375 0 8.859375 -14.4375q0 -10.640625 -4.1875 -16.71875q-4.171875 -6.078125 -13.28125 -12.921875l-23.5625 -18.234375q-12.15625 -9.375 -17.484375 -19.375015q-5.3125 -10.015625 -5.3125 -28.25q0 -14.1875 7.46875 -24.1875q7.46875 -10.015625 19.875 -15.078125q12.421875 -5.078125 27.625 -5.078125q53.953125 0 53.953125 53.71875l0 3.546875l-45.84375 0l0 -7.09375q0 -6.59375 -2.15625 -11.28125q-2.15625 -4.6875 -7.21875 -4.6875q-4.5625 0 -6.96875 2.671875q-2.40625 2.65625 -2.40625 7.203125q0 10.140625 7.859375 15.71875l27.359375 20.000015q14.6875 10.90625 22.53125 23.703125q7.859375 12.78125 7.859375 32.296875q0 25.828125 -14.703125 39.765625q-14.6875 13.9375 -41.03125 13.9375z" fill-rule="nonzero"/></g></svg>